<svg width="58" height="56" viewBox="0 0 58 56" fill="none" xmlns="http://www.w3.org/2000/svg">
<path fill-rule="evenodd" clip-rule="evenodd" d="M16.2334 8H37.7757L47.3175 17.2436V48H16.2334V40.229H18.4537V45.7797H45.0972V20.2463H35.1059V10.2203H18.4537V15.8057H16.2334V8ZM37.3262 10.6558V18.026H44.9342L37.3262 10.6558Z" fill="#1D1D1D"/>
<path fill-rule="evenodd" clip-rule="evenodd" d="M29.5559 19.1335H11.7937V25.7943H29.5559V19.1335ZM10.6836 18.0234V26.9044H30.666V18.0234H10.6836Z" fill="#00A88E"/>
<path fill-rule="evenodd" clip-rule="evenodd" d="M27.3385 23.5728H20.6738V22.462H27.3385V23.5728Z" fill="#00A88E"/>
<path fill-rule="evenodd" clip-rule="evenodd" d="M18.0428 19.8763L18.8733 20.6144L15.4952 24.4147L13.5986 22.281L14.429 21.5429L15.4952 22.7423L18.0428 19.8763Z" fill="#00A88E"/>
<path fill-rule="evenodd" clip-rule="evenodd" d="M38.4361 30.233H17.3435V36.8938H38.4361V30.233ZM16.2334 29.1229V38.0039H39.5462V29.1229H16.2334Z" fill="#00A88E"/>
<path fill-rule="evenodd" clip-rule="evenodd" d="M35.1074 34.672H26.2236V33.5615H35.1074V34.672Z" fill="#00A88E"/>
<path fill-rule="evenodd" clip-rule="evenodd" d="M23.5936 30.9757L24.424 31.7139L21.046 35.5141L19.1494 33.3804L19.9798 32.6423L21.046 33.8418L23.5936 30.9757Z" fill="#00A88E"/>
</svg>
